<?xml version="1.0" encoding="utf-8"?>
<!-- Generator: Adobe Illustrator 16.0.0, SVG Export Plug-In . SVG Version: 6.00 Build 0)  -->
<!DOCTYPE svg PUBLIC "-//W3C//DTD SVG 1.1//EN" "http://www.w3.org/Graphics/SVG/1.1/DTD/svg11.dtd">
<svg version="1.1" id="레이어_1" xmlns="http://www.w3.org/2000/svg" xmlns:xlink="http://www.w3.org/1999/xlink" x="0px"
	 y="0px" width="226.77px" height="95.907px" viewBox="0 0 226.77 95.907" enable-background="new 0 0 226.77 95.907"
	 xml:space="preserve">
<g>
	<path fill="#214499" d="M26.791,53.645V26.634H14.75v-5.5h32.25v5.5H34.985v27.011H26.791z"/>
	<path fill="#214499" d="M50.869,53.645v-32.51h30.09v5.5H59.063v7.208h20.374v5.478H59.063v8.848h22.671v5.478H50.869z"/>
	<path fill="#214499" d="M87.016,53.645v-32.51h8.193v32.51H87.016z"/>
	<path fill="#214499" d="M97.473,53.645l13.868-16.965L98.774,21.134h9.578l8.138,10.445l7.973-10.445h9.494l-12.623,15.79
		l13.869,16.721h-9.883l-8.996-11.243L107.3,53.645H97.473z"/>
	<path fill="#214499" d="M134.916,37.589c0-3.312,0.617-6.091,1.854-8.338c0.924-1.655,2.182-3.141,3.779-4.457
		c1.596-1.316,3.344-2.292,5.246-2.927c2.527-0.857,5.443-1.287,8.746-1.287c5.98,0,10.764,1.486,14.354,4.458
		s5.385,7.104,5.385,12.396c0,5.249-1.781,9.355-5.344,12.319c-3.561,2.964-8.322,4.446-14.283,4.446
		c-6.035,0-10.834-1.475-14.395-4.424C136.695,46.825,134.916,42.764,134.916,37.589z M143.357,37.367
		c0,3.681,1.063,6.472,3.184,8.372c2.123,1.9,4.816,2.85,8.084,2.85c3.266,0,5.947-0.942,8.041-2.828
		c2.094-1.885,3.143-4.712,3.143-8.482c0-3.726-1.02-6.505-3.059-8.338c-2.041-1.833-4.748-2.75-8.125-2.75s-6.1,0.928-8.166,2.783
		C144.391,30.829,143.357,33.627,143.357,37.367z"/>
	<path fill="#214499" d="M177.922,53.645v-32.51h7.973l16.609,21.71v-21.71h7.611v32.51h-8.221l-16.359-21.2v21.2H177.922z"/>
</g>
<g>
	<path fill="#030000" d="M43.717,64.407c-0.253,1.794-0.918,3.79-1.996,5.99c-1.265,2.595-2.491,3.897-3.677,3.91
		c-0.716,0.006-1.587-0.32-2.614-0.979c-0.08-0.056-0.119-0.127-0.119-0.213c0-0.216,0.116-0.323,0.347-0.323
		c0.058,0,0.115,0.012,0.173,0.036c0.622,0.271,1.153,0.41,1.595,0.416c0.961,0.025,2.021-1.192,3.178-3.651
		c1.106-2.372,1.699-4.498,1.779-6.378c0.022-0.61-0.333-0.915-1.063-0.915c-0.116,0-0.242,0.01-0.379,0.027
		c-0.564,0.068-1.204,0.45-1.92,1.146c-0.795,0.776-1.356,1.661-1.681,2.653c-0.043,0.129-0.065,0.253-0.065,0.369
		c0,0.229,0.09,0.438,0.271,0.629c0.166,0.142,0.333,0.283,0.499,0.426c0.08,0.067,0.119,0.129,0.119,0.185
		c0,0.117-0.108,0.176-0.325,0.176c-0.087,0-0.159-0.013-0.217-0.037c-0.622-0.314-1.048-0.57-1.28-0.768
		c-0.275-0.24-0.412-0.515-0.412-0.822c0-0.29,0.13-0.688,0.391-1.192c0.376-0.746,0.936-1.477,1.681-2.191
		c0.708-0.684,1.345-1.127,1.909-1.331c0.26-0.099,0.795-0.043,1.605,0.167c0.051-0.056,0.126-0.084,0.228-0.084
		c0.282,0,0.835,0.231,1.66,0.693C43.771,62.55,43.875,63.236,43.717,64.407z"/>
	<path fill="#030000" d="M52.09,70.582c-0.434,0.562-0.998,1.375-1.692,2.44c-0.13,0.277-0.257,0.555-0.379,0.832
		c-0.102,0.191-0.235,0.287-0.401,0.287c-0.13,0-0.322-0.047-0.575-0.139c-0.282-0.099-0.423-0.197-0.423-0.296
		c0-0.043,0.047-0.139,0.141-0.287c0.47-0.813,0.889-1.827,1.258-3.041c0.397-1.275,0.567-2.249,0.51-2.921
		c-0.015-0.271-0.087-0.407-0.217-0.407c-0.094,0-0.235,0.077-0.423,0.231c-1.822,1.516-3.399,3.544-4.729,6.082
		c-0.167,0.314-0.362,0.472-0.586,0.472c-0.159,0-0.423-0.077-0.792-0.231c-0.145-0.055-0.22-0.107-0.228-0.156
		c0-0.025,0.04-0.111,0.119-0.259c0.419-0.783,0.835-1.775,1.248-2.977c0.441-1.301,0.69-2.314,0.749-3.042
		c0.014-0.222,0.007-0.332-0.022-0.332c-0.007,0-0.108,0.083-0.304,0.249c-0.195,0.167-0.466,0.383-0.813,0.647
		c-0.065,0.056-0.137,0.083-0.217,0.083c-0.102,0-0.152-0.034-0.152-0.102c0-0.05,0.036-0.104,0.108-0.166
		c0.311-0.339,0.72-0.762,1.226-1.267c0.108-0.104,0.221-0.157,0.336-0.157c0.173,0,0.325,0.107,0.456,0.323
		c0.585,0.148,0.86,0.376,0.824,0.685c-0.08,0.678-0.488,1.9-1.226,3.669c0.484-0.795,1.189-1.684,2.115-2.666
		c0.925-0.983,1.612-1.564,2.061-1.743c0.224-0.086,0.383-0.129,0.478-0.129c0.094,0,0.246,0.067,0.456,0.203
		c0.6,0.179,0.896,0.475,0.889,0.888c0,0.432-0.123,1.124-0.369,2.08c-0.195,0.788-0.376,1.401-0.542,1.839
		c0.21-0.228,0.478-0.523,0.803-0.888c0.058-0.062,0.116-0.092,0.174-0.092c0.108,0,0.163,0.059,0.163,0.176
		C52.112,70.509,52.105,70.545,52.09,70.582z"/>
	<path fill="#030000" d="M61.418,70.582c-0.434,0.562-0.998,1.375-1.692,2.44c-0.13,0.277-0.257,0.555-0.379,0.832
		c-0.102,0.191-0.235,0.287-0.401,0.287c-0.13,0-0.322-0.047-0.575-0.139c-0.282-0.099-0.423-0.197-0.423-0.296
		c0-0.043,0.047-0.139,0.141-0.287c0.47-0.813,0.889-1.827,1.258-3.041c0.397-1.275,0.567-2.249,0.51-2.921
		c-0.015-0.271-0.087-0.407-0.217-0.407c-0.094,0-0.235,0.077-0.423,0.231c-1.822,1.516-3.399,3.544-4.729,6.082
		c-0.167,0.314-0.362,0.472-0.586,0.472c-0.159,0-0.423-0.077-0.792-0.231c-0.145-0.055-0.22-0.107-0.228-0.156
		c0-0.025,0.04-0.111,0.119-0.259c0.419-0.783,0.835-1.775,1.248-2.977c0.441-1.301,0.69-2.314,0.749-3.042
		c0.014-0.222,0.007-0.332-0.022-0.332c-0.007,0-0.108,0.083-0.304,0.249c-0.195,0.167-0.466,0.383-0.813,0.647
		c-0.065,0.056-0.137,0.083-0.217,0.083c-0.102,0-0.152-0.034-0.152-0.102c0-0.05,0.036-0.104,0.108-0.166
		c0.311-0.339,0.72-0.762,1.226-1.267c0.108-0.104,0.221-0.157,0.336-0.157c0.173,0,0.325,0.107,0.456,0.323
		c0.585,0.148,0.86,0.376,0.824,0.685c-0.08,0.678-0.488,1.9-1.226,3.669c0.484-0.795,1.189-1.684,2.115-2.666
		c0.925-0.983,1.612-1.564,2.061-1.743c0.224-0.086,0.383-0.129,0.478-0.129c0.094,0,0.246,0.067,0.456,0.203
		c0.6,0.179,0.896,0.475,0.889,0.888c0,0.432-0.123,1.124-0.369,2.08c-0.195,0.788-0.376,1.401-0.542,1.839
		c0.21-0.228,0.478-0.523,0.803-0.888c0.058-0.062,0.116-0.092,0.174-0.092c0.108,0,0.163,0.059,0.163,0.176
		C61.44,70.509,61.433,70.545,61.418,70.582z"/>
	<path fill="#030000" d="M69.478,68.021c-0.014,0.549-0.17,1.276-0.466,2.182c-0.47,1.43-1.135,2.539-1.996,3.328
		c-0.456,0.419-0.962,0.628-1.519,0.628c-0.217,0-0.496-0.04-0.835-0.12c-0.68-0.036-1.233-0.219-1.659-0.545
		c-0.463-0.357-0.68-0.816-0.651-1.377c0.029-0.653,0.293-1.565,0.792-2.736c0.55-1.276,1.121-2.194,1.714-2.755
		c0.282-0.271,0.514-0.407,0.694-0.407c0.246,0,0.644,0.216,1.193,0.647c0.152-0.062,0.463-0.176,0.933-0.342
		c0.239-0.068,0.419-0.102,0.542-0.102c0.282,0,0.596,0.225,0.943,0.675C69.387,67.375,69.492,67.683,69.478,68.021z M68.23,68.29
		c0.05-0.413,0.076-0.675,0.076-0.786c0-0.259-0.094-0.388-0.282-0.388c-0.072,0-0.167,0.012-0.282,0.037l-1.681,0.582
		c-0.195,0.067-0.308,0.102-0.336,0.102c-0.058,0-0.116-0.059-0.173-0.176c-0.419,0.438-0.81,1.069-1.171,1.896
		c-0.282,0.646-0.478,1.226-0.586,1.737c-0.08,0.346-0.119,0.659-0.119,0.943c0,0.948,0.343,1.411,1.03,1.386
		c0.275-0.006,0.571-0.098,0.89-0.277c0.607-0.351,1.175-1.054,1.703-2.107C67.804,70.246,68.115,69.264,68.23,68.29z"/>
	<path fill="#030000" d="M77.678,67.189c-0.181,0.352-0.387,0.768-0.619,1.248c0.051,0.124,0.213,0.333,0.488,0.629
		c0.05,0.062,0.04,0.123-0.033,0.185s-0.17,0.093-0.292,0.093c-0.174,0-0.326-0.068-0.456-0.203
		c-0.478,0.918-1.02,1.852-1.627,2.801c-0.637,1.011-1.092,1.636-1.367,1.876c-0.239,0.203-0.478,0.306-0.716,0.306
		c-0.224,0-0.423-0.077-0.596-0.231c-0.275,0.099-0.474,0.147-0.597,0.147c-0.253,0-0.449-0.188-0.586-0.563
		c-0.188-0.53-0.282-1.285-0.282-2.265c0-1.399,0.141-2.443,0.423-3.134c-0.159,0.123-0.463,0.395-0.911,0.813
		c-0.08,0.074-0.17,0.111-0.271,0.111c-0.138,0-0.206-0.053-0.206-0.157c0-0.056,0.032-0.12,0.098-0.194
		c0.434-0.499,1.001-1.161,1.703-1.987c0.181-0.222,0.369-0.333,0.564-0.333c0.217,0,0.55,0.148,0.998,0.443
		c0.094,0.068,0.141,0.143,0.141,0.223c0,0.153-0.13,0.268-0.391,0.342c-0.636,1.158-0.955,2.462-0.955,3.91
		c0,0.745,0.105,1.368,0.315,1.867c0.079,0.197,0.188,0.296,0.325,0.296c0.137,0,0.296-0.105,0.477-0.314
		c0.557-0.659,1.106-1.467,1.649-2.422c0.484-0.856,0.806-1.544,0.965-2.062c-0.094-0.142-0.141-0.329-0.141-0.563
		c0-0.419,0.159-0.977,0.478-1.674c0.137-0.289,0.314-0.434,0.531-0.434c0.123,0,0.376,0.095,0.759,0.286
		c0.188,0.093,0.282,0.216,0.282,0.37C77.83,66.709,77.779,66.906,77.678,67.189z"/>
	<path fill="#030000" d="M85.52,67.717c-0.666,1.571-1.125,2.891-1.377,3.956c0.108-0.086,0.251-0.219,0.428-0.397
		s0.288-0.283,0.331-0.314c0.101-0.11,0.209-0.166,0.325-0.166c0.109,0,0.163,0.046,0.163,0.139c0,0.056-0.029,0.12-0.087,0.194
		c-0.68,0.856-1.132,1.723-1.356,2.598c-0.065,0.246-0.163,0.369-0.293,0.369c-0.123,0-0.351-0.099-0.683-0.296
		c-0.195-0.11-0.308-0.203-0.336-0.277c-0.036-0.067-0.036-0.203,0-0.406c0.304-1.565,0.684-2.866,1.139-3.901
		c-0.629,0.869-1.486,1.831-2.571,2.885c-0.947,0.918-1.631,1.503-2.05,1.756c-0.304,0.179-0.536,0.269-0.694,0.269
		c-0.13,0-0.329-0.09-0.597-0.269c-0.383-0.197-0.575-0.468-0.575-0.813c0-0.067,0.007-0.145,0.021-0.231
		c0.13-0.911,0.6-1.973,1.41-3.184c0.81-1.211,1.739-2.232,2.788-3.064c0.34-0.271,0.644-0.404,0.911-0.397
		c0.26,0.012,0.755,0.305,1.486,0.878c0.065,0.05,0.098,0.102,0.098,0.157c0,0.099-0.076,0.147-0.228,0.147
		c-0.058,0-0.112-0.009-0.163-0.027c-0.514-0.185-0.926-0.179-1.237,0.019c-0.68,0.425-1.432,1.174-2.256,2.246
		c-0.955,1.232-1.53,2.342-1.725,3.328c-0.007,0.043-0.011,0.083-0.011,0.12c0,0.153,0.072,0.23,0.217,0.23
		c0.246,0,0.539-0.145,0.878-0.435c0.81-0.671,1.677-1.516,2.603-2.532c0.947-1.054,1.555-1.849,1.822-2.385
		c0.195-0.395,0.322-0.672,0.38-0.832c0.094-0.277,0.195-0.416,0.304-0.416s0.361,0.126,0.759,0.379
		c0.166,0.104,0.256,0.2,0.271,0.286C85.632,67.402,85.6,67.532,85.52,67.717z"/>
	<path fill="#030000" d="M92.744,62.078c0.202,0.093,0.304,0.197,0.304,0.314c0,0.08-0.068,0.12-0.206,0.12
		c-0.029,0-0.074-0.005-0.136-0.014c-0.062-0.01-0.106-0.015-0.136-0.015c-0.274,0-0.607,0.256-0.997,0.768
		c-0.348,0.456-0.828,1.448-1.443,2.977c-0.058,0.136-0.079,0.216-0.064,0.24c0.021,0.043,0.115,0.068,0.281,0.074
		c0.427,0.03,0.998,0.019,1.714-0.037c0.246-0.019,0.369,0.071,0.369,0.268c0,0.136-0.094,0.219-0.282,0.25
		c-0.151,0.019-0.951,0.074-2.396,0.166c-0.868,2.163-1.396,3.994-1.584,5.491c-0.008,0.08-0.011,0.151-0.011,0.213
		c0,0.209,0.062,0.313,0.185,0.313c0.195,0,0.784-0.403,1.768-1.211c0.115-0.098,0.228-0.147,0.336-0.147
		c0.095,0,0.152,0.034,0.174,0.102c0.021,0.074-0.011,0.16-0.098,0.259c-0.586,0.66-1.16,1.221-1.725,1.683
		c-0.238,0.19-0.438,0.286-0.597,0.286s-0.405-0.107-0.737-0.323c-0.412-0.093-0.618-0.277-0.618-0.555
		c0-0.043,0.007-0.093,0.021-0.147c0.268-1.59,0.792-3.547,1.573-5.87c-0.384-0.043-0.73-0.086-1.042-0.129
		c-0.137-0.019-0.206-0.093-0.206-0.223c0-0.142,0.072-0.228,0.217-0.259c0.145-0.03,0.412-0.099,0.803-0.203
		c0.239-0.067,0.471-0.16,0.694-0.277c0.773-2.04,1.381-3.361,1.822-3.966c0.253-0.345,0.524-0.518,0.813-0.518
		C91.815,61.708,92.216,61.832,92.744,62.078z"/>
	<path fill="#030000" d="M94.859,67.587c-0.174,0.832-0.626,2.216-1.356,4.15c0.21-0.16,0.499-0.452,0.868-0.878
		c0.051-0.056,0.101-0.083,0.151-0.083c0.116,0,0.131,0.086,0.044,0.259c-0.036,0.068-0.34,0.49-0.911,1.267
		c-0.434,0.592-0.752,1.115-0.955,1.571c-0.064,0.142-0.184,0.213-0.357,0.213s-0.409-0.071-0.705-0.213
		c-0.188-0.086-0.282-0.151-0.282-0.194c0-0.037,0.04-0.117,0.119-0.24c0.391-0.585,0.824-1.565,1.302-2.939
		c0.456-1.331,0.712-2.32,0.771-2.967c0.021-0.277-0.011-0.416-0.098-0.416c-0.065,0-0.181,0.067-0.348,0.203l-0.672,0.536
		c-0.239,0.185-0.358,0.194-0.358,0.027c0-0.049,0.032-0.11,0.098-0.185c0.34-0.407,0.701-0.792,1.085-1.155
		c0.115-0.104,0.228-0.157,0.336-0.157c0.116,0,0.286,0.067,0.51,0.203c0.333,0.074,0.518,0.12,0.554,0.139
		c0.166,0.087,0.249,0.247,0.249,0.48C94.902,67.319,94.888,67.445,94.859,67.587z M96.389,63.538
		c0.115,0.074,0.173,0.157,0.173,0.25c0,0.179-0.311,0.456-0.933,0.832c-0.412,0.24-0.81,0.326-1.192,0.259
		c-0.218-0.037-0.405-0.104-0.564-0.203c-0.051-0.037-0.089-0.075-0.114-0.116c-0.025-0.04-0.03-0.072-0.016-0.097
		c0.021-0.024,0.064-0.03,0.13-0.019c0.665-0.493,1.103-0.847,1.313-1.063c0.166-0.16,0.285-0.241,0.357-0.241
		C95.673,63.141,95.954,63.273,96.389,63.538z"/>
	<path fill="#030000" d="M102.983,68.021c-0.015,0.549-0.17,1.276-0.466,2.182c-0.471,1.43-1.136,2.539-1.996,3.328
		c-0.456,0.419-0.962,0.628-1.519,0.628c-0.217,0-0.495-0.04-0.835-0.12c-0.68-0.036-1.233-0.219-1.66-0.545
		c-0.463-0.357-0.68-0.816-0.65-1.377c0.028-0.653,0.293-1.565,0.792-2.736c0.549-1.276,1.12-2.194,1.714-2.755
		c0.281-0.271,0.513-0.407,0.693-0.407c0.246,0,0.644,0.216,1.193,0.647c0.152-0.062,0.463-0.176,0.933-0.342
		c0.239-0.068,0.42-0.102,0.543-0.102c0.282,0,0.597,0.225,0.943,0.675C102.894,67.375,102.998,67.683,102.983,68.021z
		 M101.736,68.29c0.051-0.413,0.076-0.675,0.076-0.786c0-0.259-0.095-0.388-0.282-0.388c-0.072,0-0.167,0.012-0.282,0.037
		l-1.682,0.582c-0.194,0.067-0.307,0.102-0.336,0.102c-0.058,0-0.115-0.059-0.174-0.176c-0.419,0.438-0.81,1.069-1.171,1.896
		c-0.282,0.646-0.478,1.226-0.586,1.737c-0.079,0.346-0.119,0.659-0.119,0.943c0,0.948,0.344,1.411,1.03,1.386
		c0.274-0.006,0.571-0.098,0.89-0.277c0.607-0.351,1.175-1.054,1.703-2.107C101.31,70.246,101.62,69.264,101.736,68.29z"/>
	<path fill="#030000" d="M111.986,70.582c-0.435,0.562-0.998,1.375-1.692,2.44c-0.13,0.277-0.257,0.555-0.38,0.832
		c-0.101,0.191-0.234,0.287-0.401,0.287c-0.13,0-0.321-0.047-0.574-0.139c-0.282-0.099-0.424-0.197-0.424-0.296
		c0-0.043,0.048-0.139,0.142-0.287c0.47-0.813,0.89-1.827,1.258-3.041c0.397-1.275,0.567-2.249,0.51-2.921
		c-0.015-0.271-0.087-0.407-0.217-0.407c-0.094,0-0.235,0.077-0.423,0.231c-1.822,1.516-3.398,3.544-4.729,6.082
		c-0.166,0.314-0.361,0.472-0.585,0.472c-0.159,0-0.424-0.077-0.792-0.231c-0.145-0.055-0.221-0.107-0.229-0.156
		c0-0.025,0.04-0.111,0.12-0.259c0.419-0.783,0.835-1.775,1.247-2.977c0.441-1.301,0.69-2.314,0.748-3.042
		c0.015-0.222,0.008-0.332-0.021-0.332c-0.007,0-0.108,0.083-0.304,0.249c-0.195,0.167-0.466,0.383-0.813,0.647
		c-0.065,0.056-0.138,0.083-0.217,0.083c-0.102,0-0.152-0.034-0.152-0.102c0-0.05,0.036-0.104,0.109-0.166
		c0.311-0.339,0.719-0.762,1.226-1.267c0.108-0.104,0.22-0.157,0.336-0.157c0.174,0,0.325,0.107,0.455,0.323
		c0.586,0.148,0.861,0.376,0.825,0.685c-0.08,0.678-0.488,1.9-1.226,3.669c0.484-0.795,1.188-1.684,2.114-2.666
		c0.926-0.983,1.613-1.564,2.062-1.743c0.224-0.086,0.383-0.129,0.477-0.129c0.095,0,0.246,0.067,0.456,0.203
		c0.6,0.179,0.896,0.475,0.89,0.888c0,0.432-0.123,1.124-0.369,2.08c-0.195,0.788-0.376,1.401-0.542,1.839
		c0.209-0.228,0.477-0.523,0.803-0.888c0.058-0.062,0.115-0.092,0.173-0.092c0.108,0,0.163,0.059,0.163,0.176
		C112.008,70.509,112,70.545,111.986,70.582z"/>
	<path fill="#030000" d="M124.047,68.021c-0.015,0.549-0.17,1.276-0.466,2.182c-0.471,1.43-1.136,2.539-1.996,3.328
		c-0.456,0.419-0.962,0.628-1.519,0.628c-0.217,0-0.495-0.04-0.835-0.12c-0.68-0.036-1.233-0.219-1.66-0.545
		c-0.463-0.357-0.68-0.816-0.65-1.377c0.028-0.653,0.293-1.565,0.792-2.736c0.549-1.276,1.12-2.194,1.714-2.755
		c0.281-0.271,0.513-0.407,0.693-0.407c0.246,0,0.644,0.216,1.193,0.647c0.152-0.062,0.463-0.176,0.933-0.342
		c0.239-0.068,0.42-0.102,0.543-0.102c0.282,0,0.597,0.225,0.943,0.675C123.957,67.375,124.062,67.683,124.047,68.021z M122.8,68.29
		c0.051-0.413,0.076-0.675,0.076-0.786c0-0.259-0.095-0.388-0.282-0.388c-0.072,0-0.167,0.012-0.282,0.037l-1.682,0.582
		c-0.194,0.067-0.307,0.102-0.336,0.102c-0.058,0-0.115-0.059-0.174-0.176c-0.419,0.438-0.81,1.069-1.171,1.896
		c-0.282,0.646-0.478,1.226-0.586,1.737c-0.079,0.346-0.119,0.659-0.119,0.943c0,0.948,0.344,1.411,1.03,1.386
		c0.274-0.006,0.571-0.098,0.89-0.277c0.607-0.351,1.175-1.054,1.703-2.107C122.373,70.246,122.684,69.264,122.8,68.29z"/>
	<path fill="#030000" d="M133.917,59.998c0.108,0.067,0.163,0.142,0.163,0.222c0,0.123-0.091,0.186-0.271,0.186
		c-0.079,0-0.155-0.016-0.228-0.047c-0.412-0.19-0.777-0.286-1.096-0.286c-0.238,0-0.452,0.05-0.64,0.147
		c-0.724,0.395-1.869,2.453-3.438,6.175c1.171,0.154,1.912,0.231,2.224,0.231c0.166,0,0.249,0.053,0.249,0.157
		c0,0.117-0.083,0.191-0.249,0.222c-0.846,0.136-1.707,0.222-2.582,0.259c-0.99,2.496-1.764,4.816-2.321,6.961
		c-0.448,1.731-0.672,2.967-0.672,3.706c0,0.062,0.011,0.156,0.032,0.282s0.032,0.224,0.032,0.291c0,0.099-0.039,0.148-0.119,0.148
		c-0.108,0-0.365-0.105-0.77-0.314c-0.484-0.24-0.694-0.524-0.629-0.851c0.607-2.736,1.674-6.138,3.199-10.205
		c-0.563,0.031-0.904,0.043-1.02,0.037c-0.151-0.019-0.257-0.08-0.314-0.185c-0.08-0.167-0.119-0.259-0.119-0.277
		c0-0.093,0.115-0.164,0.347-0.213c0.333-0.067,0.665-0.133,0.998-0.194c0.304-0.074,0.48-0.176,0.531-0.305
		c1.164-2.872,2.079-4.831,2.744-5.879c0.55-0.863,1.074-1.294,1.573-1.294C132.02,58.972,132.811,59.314,133.917,59.998z"/>
	<path fill="#030000" d="M140.359,62.078c0.202,0.093,0.304,0.197,0.304,0.314c0,0.08-0.068,0.12-0.206,0.12
		c-0.029,0-0.074-0.005-0.136-0.014c-0.062-0.01-0.106-0.015-0.136-0.015c-0.274,0-0.607,0.256-0.997,0.768
		c-0.348,0.456-0.828,1.448-1.443,2.977c-0.058,0.136-0.079,0.216-0.064,0.24c0.021,0.043,0.115,0.068,0.281,0.074
		c0.427,0.03,0.998,0.019,1.714-0.037c0.246-0.019,0.369,0.071,0.369,0.268c0,0.136-0.094,0.219-0.282,0.25
		c-0.151,0.019-0.951,0.074-2.396,0.166c-0.868,2.163-1.396,3.994-1.584,5.491c-0.008,0.08-0.011,0.151-0.011,0.213
		c0,0.209,0.062,0.313,0.185,0.313c0.195,0,0.784-0.403,1.768-1.211c0.115-0.098,0.228-0.147,0.336-0.147
		c0.095,0,0.152,0.034,0.174,0.102c0.021,0.074-0.011,0.16-0.098,0.259c-0.586,0.66-1.16,1.221-1.725,1.683
		c-0.238,0.19-0.438,0.286-0.597,0.286s-0.405-0.107-0.737-0.323c-0.412-0.093-0.618-0.277-0.618-0.555
		c0-0.043,0.007-0.093,0.021-0.147c0.268-1.59,0.792-3.547,1.573-5.87c-0.384-0.043-0.73-0.086-1.042-0.129
		c-0.137-0.019-0.206-0.093-0.206-0.223c0-0.142,0.072-0.228,0.217-0.259c0.145-0.03,0.412-0.099,0.803-0.203
		c0.239-0.067,0.471-0.16,0.694-0.277c0.773-2.04,1.381-3.361,1.822-3.966c0.253-0.345,0.524-0.518,0.813-0.518
		C139.431,61.708,139.831,61.832,140.359,62.078z"/>
	<path fill="#030000" d="M148.071,59.527c0.094,0.062,0.141,0.129,0.141,0.203c0,0.111-0.083,0.167-0.249,0.167
		c-0.072,0-0.148-0.019-0.228-0.056c-0.333-0.142-0.583-0.212-0.749-0.212c-0.441,0-0.933,0.376-1.475,1.128
		c-1.909,2.649-3.323,6.119-4.241,10.408c1.179-1.929,2.527-3.47,4.046-4.622c0.325-0.247,0.563-0.37,0.716-0.37
		c0.043,0,0.224,0.087,0.542,0.259c0.384,0.136,0.601,0.222,0.651,0.259c0.188,0.142,0.281,0.389,0.281,0.739
		c0,0.099-0.007,0.207-0.021,0.324c-0.123,1.097-0.492,2.425-1.106,3.983c0.225-0.259,0.579-0.638,1.063-1.137
		c0.115-0.104,0.213-0.157,0.293-0.157c0.079,0,0.119,0.04,0.119,0.12c0,0.093-0.047,0.197-0.142,0.314
		c-0.419,0.518-0.976,1.275-1.67,2.274c-0.058,0.099-0.199,0.357-0.423,0.776c-0.095,0.197-0.225,0.296-0.391,0.296
		c-0.188,0-0.459-0.108-0.813-0.324c-0.145-0.086-0.17-0.222-0.076-0.406c1.244-2.662,1.901-4.649,1.975-5.962
		c0.021-0.376-0.04-0.564-0.185-0.564c-0.095,0-0.293,0.105-0.597,0.314c-0.557,0.382-1.24,1.06-2.05,2.033
		c-1.07,1.282-1.898,2.592-2.484,3.929c-0.159,0.383-0.308,0.573-0.444,0.573c-0.123,0-0.365-0.126-0.727-0.379
		c-0.182-0.129-0.243-0.345-0.185-0.646c0.839-3.914,1.931-7.257,3.275-10.03c0.998-2.063,1.898-3.414,2.701-4.048
		c0.202-0.16,0.401-0.24,0.597-0.24c0.202,0,0.459,0.099,0.77,0.295C147.348,59.021,147.71,59.274,148.071,59.527z"/>
	<path fill="#030000" d="M151.76,67.587c-0.174,0.832-0.626,2.216-1.356,4.15c0.21-0.16,0.499-0.452,0.868-0.878
		c0.051-0.056,0.101-0.083,0.151-0.083c0.116,0,0.131,0.086,0.044,0.259c-0.036,0.068-0.34,0.49-0.911,1.267
		c-0.434,0.592-0.752,1.115-0.955,1.571c-0.064,0.142-0.184,0.213-0.357,0.213s-0.409-0.071-0.705-0.213
		c-0.188-0.086-0.282-0.151-0.282-0.194c0-0.037,0.04-0.117,0.119-0.24c0.391-0.585,0.824-1.565,1.302-2.939
		c0.456-1.331,0.712-2.32,0.771-2.967c0.021-0.277-0.011-0.416-0.098-0.416c-0.065,0-0.181,0.067-0.348,0.203l-0.672,0.536
		c-0.239,0.185-0.358,0.194-0.358,0.027c0-0.049,0.032-0.11,0.098-0.185c0.34-0.407,0.701-0.792,1.085-1.155
		c0.115-0.104,0.228-0.157,0.336-0.157c0.116,0,0.286,0.067,0.51,0.203c0.333,0.074,0.518,0.12,0.554,0.139
		c0.166,0.087,0.249,0.247,0.249,0.48C151.803,67.319,151.788,67.445,151.76,67.587z M153.289,63.538
		c0.115,0.074,0.173,0.157,0.173,0.25c0,0.179-0.311,0.456-0.933,0.832c-0.412,0.24-0.81,0.326-1.192,0.259
		c-0.218-0.037-0.405-0.104-0.564-0.203c-0.051-0.037-0.089-0.075-0.114-0.116c-0.025-0.04-0.03-0.072-0.016-0.097
		c0.021-0.024,0.064-0.03,0.13-0.019c0.665-0.493,1.103-0.847,1.313-1.063c0.166-0.16,0.285-0.241,0.357-0.241
		C152.573,63.141,152.854,63.273,153.289,63.538z"/>
	<path fill="#030000" d="M161.153,70.582c-0.435,0.562-0.998,1.375-1.692,2.44c-0.13,0.277-0.257,0.555-0.38,0.832
		c-0.101,0.191-0.234,0.287-0.401,0.287c-0.13,0-0.321-0.047-0.574-0.139c-0.282-0.099-0.424-0.197-0.424-0.296
		c0-0.043,0.048-0.139,0.142-0.287c0.47-0.813,0.89-1.827,1.258-3.041c0.397-1.275,0.567-2.249,0.51-2.921
		c-0.015-0.271-0.087-0.407-0.217-0.407c-0.094,0-0.235,0.077-0.423,0.231c-1.822,1.516-3.398,3.544-4.729,6.082
		c-0.166,0.314-0.361,0.472-0.585,0.472c-0.159,0-0.424-0.077-0.792-0.231c-0.145-0.055-0.221-0.107-0.229-0.156
		c0-0.025,0.04-0.111,0.12-0.259c0.419-0.783,0.835-1.775,1.247-2.977c0.441-1.301,0.69-2.314,0.748-3.042
		c0.015-0.222,0.008-0.332-0.021-0.332c-0.007,0-0.108,0.083-0.304,0.249c-0.195,0.167-0.466,0.383-0.813,0.647
		c-0.065,0.056-0.138,0.083-0.217,0.083c-0.102,0-0.152-0.034-0.152-0.102c0-0.05,0.036-0.104,0.109-0.166
		c0.311-0.339,0.719-0.762,1.226-1.267c0.108-0.104,0.22-0.157,0.336-0.157c0.174,0,0.325,0.107,0.455,0.323
		c0.586,0.148,0.861,0.376,0.825,0.685c-0.08,0.678-0.488,1.9-1.226,3.669c0.484-0.795,1.188-1.684,2.114-2.666
		c0.926-0.983,1.613-1.564,2.062-1.743c0.224-0.086,0.383-0.129,0.477-0.129c0.095,0,0.246,0.067,0.456,0.203
		c0.6,0.179,0.896,0.475,0.89,0.888c0,0.432-0.123,1.124-0.369,2.08c-0.195,0.788-0.376,1.401-0.542,1.839
		c0.209-0.228,0.477-0.523,0.803-0.888c0.058-0.062,0.115-0.092,0.173-0.092c0.108,0,0.163,0.059,0.163,0.176
		C161.175,70.509,161.167,70.545,161.153,70.582z"/>
	<path fill="#030000" d="M171.902,74.853c-0.673,0.888-1.215,1.331-1.627,1.331c-0.507,0-1.231-0.577-2.175-1.732
		c-0.944-1.156-1.752-2.451-2.425-3.888c-0.86,0.906-1.457,1.966-1.789,3.18c-0.08,0.271-0.174,0.407-0.282,0.407
		c-0.044,0-0.13-0.021-0.261-0.064c-0.6-0.222-0.9-0.447-0.9-0.675c0-0.031,0.044-0.237,0.131-0.619
		c0.831-3.914,1.916-7.257,3.254-10.03c0.998-2.07,1.898-3.42,2.7-4.048c0.203-0.167,0.401-0.25,0.597-0.25
		c0.203,0,0.463,0.102,0.781,0.305c0.361,0.253,0.723,0.505,1.085,0.758c0.101,0.062,0.151,0.129,0.151,0.203
		c0,0.111-0.083,0.167-0.249,0.167c-0.08,0-0.159-0.019-0.239-0.056c-0.332-0.142-0.582-0.212-0.748-0.212
		c-0.455,0-0.954,0.376-1.497,1.128c-1.945,2.705-3.344,6.232-4.197,10.583c0.174-0.302,0.567-0.878,1.183-1.729
		c-0.08-0.215-0.12-0.342-0.12-0.379c0-0.147,0.246-0.262,0.738-0.342c0.983-1.22,1.789-2.04,2.418-2.459
		c0.225-0.147,0.398-0.222,0.521-0.222c0.122,0,0.351,0.151,0.683,0.453c0.521,0.179,0.781,0.4,0.781,0.665
		c0,0.087-0.015,0.197-0.043,0.333c-0.138,0.512-0.333,0.962-0.586,1.35c-0.13,0.203-0.268,0.305-0.412,0.305
		c-0.102,0-0.261-0.033-0.478-0.102c-0.412-0.123-0.618-0.249-0.618-0.379c0-0.08,0.065-0.142,0.195-0.185
		c0.304-0.222,0.491-0.659,0.563-1.313c0.015-0.154-0.032-0.231-0.141-0.231c-0.065,0-0.151,0.034-0.26,0.102
		c-0.796,0.493-1.479,1.208-2.051,2.145c1.1,2.891,2.351,4.699,3.753,5.427c0.174,0.086,0.351,0.129,0.532,0.129
		c0.26,0,0.459-0.064,0.596-0.194c0.138-0.129,0.261-0.193,0.369-0.193c0.102,0,0.152,0.046,0.152,0.139
		C171.989,74.714,171.96,74.779,171.902,74.853z"/>
	<path fill="#030000" d="M173.909,67.587c-0.174,0.832-0.626,2.216-1.356,4.15c0.21-0.16,0.499-0.452,0.868-0.878
		c0.051-0.056,0.101-0.083,0.151-0.083c0.116,0,0.131,0.086,0.044,0.259c-0.036,0.068-0.34,0.49-0.911,1.267
		c-0.434,0.592-0.752,1.115-0.955,1.571c-0.064,0.142-0.184,0.213-0.357,0.213s-0.409-0.071-0.705-0.213
		c-0.188-0.086-0.282-0.151-0.282-0.194c0-0.037,0.04-0.117,0.119-0.24c0.391-0.585,0.824-1.565,1.302-2.939
		c0.456-1.331,0.712-2.32,0.771-2.967c0.021-0.277-0.011-0.416-0.098-0.416c-0.065,0-0.181,0.067-0.348,0.203l-0.672,0.536
		c-0.239,0.185-0.358,0.194-0.358,0.027c0-0.049,0.032-0.11,0.098-0.185c0.34-0.407,0.701-0.792,1.085-1.155
		c0.115-0.104,0.228-0.157,0.336-0.157c0.116,0,0.286,0.067,0.51,0.203c0.333,0.074,0.518,0.12,0.554,0.139
		c0.166,0.087,0.249,0.247,0.249,0.48C173.952,67.319,173.938,67.445,173.909,67.587z M175.438,63.538
		c0.115,0.074,0.173,0.157,0.173,0.25c0,0.179-0.311,0.456-0.933,0.832c-0.412,0.24-0.81,0.326-1.192,0.259
		c-0.218-0.037-0.405-0.104-0.564-0.203c-0.051-0.037-0.089-0.075-0.114-0.116c-0.025-0.04-0.03-0.072-0.016-0.097
		c0.021-0.024,0.064-0.03,0.13-0.019c0.665-0.493,1.103-0.847,1.313-1.063c0.166-0.16,0.285-0.241,0.357-0.241
		C174.723,63.141,175.004,63.273,175.438,63.538z"/>
	<path fill="#030000" d="M183.303,70.582c-0.435,0.562-0.998,1.375-1.692,2.44c-0.13,0.277-0.257,0.555-0.38,0.832
		c-0.101,0.191-0.234,0.287-0.401,0.287c-0.13,0-0.321-0.047-0.574-0.139c-0.282-0.099-0.424-0.197-0.424-0.296
		c0-0.043,0.048-0.139,0.142-0.287c0.47-0.813,0.89-1.827,1.258-3.041c0.397-1.275,0.567-2.249,0.51-2.921
		c-0.015-0.271-0.087-0.407-0.217-0.407c-0.094,0-0.235,0.077-0.423,0.231c-1.822,1.516-3.398,3.544-4.729,6.082
		c-0.166,0.314-0.361,0.472-0.585,0.472c-0.159,0-0.424-0.077-0.792-0.231c-0.145-0.055-0.221-0.107-0.229-0.156
		c0-0.025,0.04-0.111,0.12-0.259c0.419-0.783,0.835-1.775,1.247-2.977c0.441-1.301,0.69-2.314,0.748-3.042
		c0.015-0.222,0.008-0.332-0.021-0.332c-0.007,0-0.108,0.083-0.304,0.249c-0.195,0.167-0.466,0.383-0.813,0.647
		c-0.065,0.056-0.138,0.083-0.217,0.083c-0.102,0-0.152-0.034-0.152-0.102c0-0.05,0.036-0.104,0.109-0.166
		c0.311-0.339,0.719-0.762,1.226-1.267c0.108-0.104,0.22-0.157,0.336-0.157c0.174,0,0.325,0.107,0.455,0.323
		c0.586,0.148,0.861,0.376,0.825,0.685c-0.08,0.678-0.488,1.9-1.226,3.669c0.484-0.795,1.188-1.684,2.114-2.666
		c0.926-0.983,1.613-1.564,2.062-1.743c0.224-0.086,0.383-0.129,0.477-0.129c0.095,0,0.246,0.067,0.456,0.203
		c0.6,0.179,0.896,0.475,0.89,0.888c0,0.432-0.123,1.124-0.369,2.08c-0.195,0.788-0.376,1.401-0.542,1.839
		c0.209-0.228,0.477-0.523,0.803-0.888c0.058-0.062,0.115-0.092,0.173-0.092c0.108,0,0.163,0.059,0.163,0.176
		C183.324,70.509,183.316,70.545,183.303,70.582z"/>
	<path fill="#030000" d="M192.023,67.338c-2.221,9.816-5.105,14.722-8.656,14.716c-1.279,0-2.664-0.601-4.154-1.803
		c-0.137-0.11-0.206-0.225-0.206-0.342c0-0.179,0.098-0.268,0.293-0.268c0.102,0,0.199,0.033,0.293,0.102
		c1.179,0.856,2.234,1.284,3.167,1.284c2.979,0,5.463-3.729,7.452-11.185c-1.208,1.769-2.26,3.035-3.156,3.799
		c-0.362,0.314-0.684,0.472-0.966,0.472c-0.26,0-0.582-0.123-0.965-0.37c-0.688-0.289-1.017-0.764-0.987-1.423
		c0.043-0.808,0.408-1.809,1.096-3.005c0.672-1.164,1.374-2.042,2.104-2.634c0.413-0.333,0.785-0.499,1.118-0.499
		c0.245,0,0.517,0.092,0.813,0.277c0.043,0.03,0.332,0.249,0.867,0.656c0.108,0.08,0.163,0.16,0.163,0.24
		c0,0.11-0.087,0.166-0.261,0.166c-0.108,0-0.231-0.027-0.368-0.083c-0.218-0.099-0.431-0.148-0.641-0.148
		c-0.304,0-0.578,0.093-0.824,0.277c-0.528,0.395-1.081,1.036-1.659,1.923c-0.63,0.974-1.017,1.861-1.161,2.662
		c-0.036,0.216-0.054,0.404-0.054,0.564c0,0.456,0.145,0.684,0.434,0.684c0.195,0,0.401-0.083,0.618-0.249
		c0.86-0.629,1.714-1.538,2.56-2.728c0.788-1.097,1.349-2.104,1.682-3.022c0.123-0.326,0.185-0.638,0.185-0.934
		c0-0.234,0.064-0.352,0.195-0.352c0.137,0,0.404,0.13,0.803,0.389C192.045,66.66,192.117,66.938,192.023,67.338z"/>
</g>
<g>
</g>
<g>
</g>
<g>
</g>
<g>
</g>
<g>
</g>
<g>
</g>
</svg>
